# xmcd
#
# Track frame offsets:
#	150
#	13781
#	27958
#	52997
#	68444
#	93099
#	107043
#	120021
#	133949
#	145856
#
# Disc length: 2189 seconds
#
# Revision: 1
# Processed by: cddbd v1.4PL0 Copyright (c) Steve Scherf et al.
# Submitted via: EasyCDDAExtractor 6.0.0.1
#
DISCID=77088b0a
DTITLE=Dwight Yoakam - In Other's Words
DYEAR=2003
DGENRE=Country
TTITLE0=Borrowed Love
TTITLE1=Rocky Road Blues
TTITLE2=T for Texas 
TTITLE3=Cattle Call 
TTITLE4=Truckin' 
TTITLE5=New San Antone Rose
TTITLE6=Rapid City, South Dakota
TTITLE7=Louisville (#) 
TTITLE8=Holding Things Together
TTITLE9=Mystery Train 
EXTD=
EXTT0=
EXTT1=
EXTT2=
EXTT3=
EXTT4=
EXTT5=
EXTT6=
EXTT7=
EXTT8=
EXTT9=
PLAYORDER=
